<?xml version="1.0" encoding="UTF-8" standalone="no"?>
<!DOCTYPE svg PUBLIC "-//W3C//DTD SVG 1.1//EN" "http://www.w3.org/Graphics/SVG/1.1/DTD/svg11.dtd">
<!-- Generated by graphviz version 2.40.1 (20161225.0304)
 -->
<!-- Title: G Pages: 1 -->
<svg width="328pt" height="399pt" viewBox="0.00 0.00 328.29 399.20" xmlns="http://www.w3.org/2000/svg" xmlns:xlink="http://www.w3.org/1999/xlink">
<g id="graph0" class="graph" transform="scale(1 1) rotate(0) translate(4 395.2)">
<title>G</title>
<polygon fill="#ffffff" stroke="transparent" points="-4,4 -4,-395.2 324.2897,-395.2 324.2897,4 -4,4"/>
<!-- created -->
<g id="node1" class="node">
<title>created</title>
<ellipse fill="none" stroke="#000000" cx="74.1327" cy="-373.2" rx="38.8208" ry="18"/>
<text text-anchor="middle" x="74.1327" y="-369" font-family="Times,serif" font-size="14.00" fill="#000000">created</text>
</g>
<!-- created&#45;&gt;created -->
<g id="edge2" class="edge">
<title>created-&gt;created</title>
<path fill="none" stroke="#000000" d="M108.8642,-381.4455C121.1081,-381.5774 131.043,-378.8289 131.043,-373.2 131.043,-369.2422 126.1314,-366.7084 118.9589,-365.5986"/>
<polygon fill="#000000" stroke="#000000" points="119.0668,-362.0985 108.8642,-364.9545 118.621,-369.0843 119.0668,-362.0985"/>
<text text-anchor="middle" x="155.9231" y="-369" font-family="Times,serif" font-size="14.00" fill="#000000">get_state</text>
</g>
<!-- sum -->
<g id="node2" class="node">
<title>sum</title>
<ellipse fill="none" stroke="#000000" cx="27.1327" cy="-284.4" rx="27.2661" ry="18"/>
<text text-anchor="middle" x="27.1327" y="-280.2" font-family="Times,serif" font-size="14.00" fill="#000000">sum</text>
</g>
<!-- created&#45;&gt;sum -->
<g id="edge1" class="edge">
<title>created-&gt;sum</title>
<path fill="none" stroke="#000000" d="M48.6835,-359.5132C40.5839,-353.7703 32.5578,-346.2889 28.0275,-337.2 24.2891,-329.6999 23.1063,-320.8244 23.1307,-312.5117"/>
<polygon fill="#000000" stroke="#000000" points="26.6305,-312.6124 23.7057,-302.4293 19.6419,-312.2137 26.6305,-312.6124"/>
<text text-anchor="middle" x="40.1853" y="-324.6" font-family="Times,serif" font-size="14.00" fill="#000000">next</text>
</g>
<!-- sum&#45;&gt;created -->
<g id="edge5" class="edge">
<title>sum-&gt;created</title>
<path fill="none" stroke="#000000" d="M39.5982,-300.7766C43.8647,-306.7723 48.4787,-313.7255 52.1327,-320.4 56.5199,-328.4138 60.5951,-337.4868 64.016,-345.8228"/>
<polygon fill="#000000" stroke="#000000" points="60.7774,-347.1509 67.7107,-355.1622 67.2866,-344.5759 60.7774,-347.1509"/>
<text text-anchor="middle" x="81.1285" y="-324.6" font-family="Times,serif" font-size="14.00" fill="#000000">to_start</text>
</g>
<!-- sum&#45;&gt;sum -->
<g id="edge3" class="edge">
<title>sum-&gt;sum</title>
<path fill="none" stroke="#000000" d="M53.557,-288.5089C63.7736,-288.6915 72.2654,-287.3219 72.2654,-284.4 72.2654,-282.5282 68.7804,-281.2934 63.5894,-280.6956"/>
<polygon fill="#000000" stroke="#000000" points="63.6899,-277.197 53.557,-280.2911 63.4078,-284.1913 63.6899,-277.197"/>
<text text-anchor="middle" x="95.9856" y="-280.2" font-family="Times,serif" font-size="14.00" fill="#000000">get_sum</text>
</g>
<!-- sum&#45;&gt;sum -->
<g id="edge4" class="edge">
<title>sum-&gt;sum</title>
<path fill="none" stroke="#000000" d="M52.7625,-290.8972C81.5391,-294.6009 119.7058,-292.4352 119.7058,-284.4 119.7058,-277.2751 89.6965,-274.7651 62.8344,-276.8701"/>
<polygon fill="#000000" stroke="#000000" points="62.3533,-273.401 52.7625,-277.9028 63.0674,-280.3645 62.3533,-273.401"/>
<text text-anchor="middle" x="144.5859" y="-280.2" font-family="Times,serif" font-size="14.00" fill="#000000">get_state</text>
</g>
<!-- diff -->
<g id="node3" class="node">
<title>diff</title>
<ellipse fill="none" stroke="#000000" cx="124.1327" cy="-195.6" rx="27" ry="18"/>
<text text-anchor="middle" x="124.1327" y="-191.4" font-family="Times,serif" font-size="14.00" fill="#000000">diff</text>
</g>
<!-- sum&#45;&gt;diff -->
<g id="edge6" class="edge">
<title>sum-&gt;diff</title>
<path fill="none" stroke="#000000" d="M43.1503,-269.7365C58.7358,-255.4685 82.6039,-233.6181 100.3958,-217.3303"/>
<polygon fill="#000000" stroke="#000000" points="103.0787,-219.6193 108.0913,-210.2853 98.352,-214.4562 103.0787,-219.6193"/>
<text text-anchor="middle" x="97.1853" y="-235.8" font-family="Times,serif" font-size="14.00" fill="#000000">next</text>
</g>
<!-- diff&#45;&gt;created -->
<g id="edge9" class="edge">
<title>diff-&gt;created</title>
<path fill="none" stroke="#000000" d="M143.5539,-208.4009C170.9015,-228.0975 215.2919,-267.2478 195.1327,-302.4 178.4528,-331.4852 144.6865,-349.7695 117.0527,-360.4549"/>
<polygon fill="#000000" stroke="#000000" points="115.7612,-357.2005 107.5721,-363.9228 118.1659,-363.7745 115.7612,-357.2005"/>
<text text-anchor="middle" x="221.1285" y="-280.2" font-family="Times,serif" font-size="14.00" fill="#000000">to_start</text>
</g>
<!-- diff&#45;&gt;diff -->
<g id="edge7" class="edge">
<title>diff-&gt;diff</title>
<path fill="none" stroke="#000000" d="M150.4793,-199.7089C160.6659,-199.8915 169.1327,-198.5219 169.1327,-195.6 169.1327,-193.7282 165.6579,-192.4934 160.4822,-191.8956"/>
<polygon fill="#000000" stroke="#000000" points="160.6126,-188.3982 150.4793,-191.4911 160.3297,-195.3924 160.6126,-188.3982"/>
<text text-anchor="middle" x="194.0128" y="-191.4" font-family="Times,serif" font-size="14.00" fill="#000000">get_state</text>
</g>
<!-- diff&#45;&gt;diff -->
<g id="edge8" class="edge">
<title>diff-&gt;diff</title>
<path fill="none" stroke="#000000" d="M149.6636,-202.0373C179.1135,-205.8239 218.8929,-203.6781 218.8929,-195.6 218.8929,-188.4054 187.3394,-185.9165 159.632,-188.1332"/>
<polygon fill="#000000" stroke="#000000" points="159.2511,-184.6538 149.6636,-189.1627 159.9703,-191.6168 159.2511,-184.6538"/>
<text text-anchor="middle" x="241.0514" y="-191.4" font-family="Times,serif" font-size="14.00" fill="#000000">get_diff</text>
</g>
<!-- division -->
<g id="node4" class="node">
<title>division</title>
<ellipse fill="none" stroke="#000000" cx="124.1327" cy="-106.8" rx="42.3145" ry="18"/>
<text text-anchor="middle" x="124.1327" y="-102.6" font-family="Times,serif" font-size="14.00" fill="#000000">division</text>
</g>
<!-- diff&#45;&gt;division -->
<g id="edge10" class="edge">
<title>diff-&gt;division</title>
<path fill="none" stroke="#000000" d="M111.4986,-179.292C107.679,-173.4135 103.9816,-166.5168 102.0275,-159.6 99.9975,-152.4146 99.9975,-149.9854 102.0275,-142.8 102.9447,-139.5533 104.246,-136.3111 105.7638,-133.1765"/>
<polygon fill="#000000" stroke="#000000" points="108.9598,-134.633 110.7988,-124.199 102.8545,-131.2088 108.9598,-134.633"/>
<text text-anchor="middle" x="114.1853" y="-147" font-family="Times,serif" font-size="14.00" fill="#000000">next</text>
</g>
<!-- division&#45;&gt;diff -->
<g id="edge13" class="edge">
<title>division-&gt;diff</title>
<path fill="none" stroke="#000000" d="M125.3467,-125.1059C125.6697,-130.7749 125.9729,-137.0434 126.1327,-142.8 126.3399,-150.2638 126.3399,-152.1362 126.1327,-159.6 126.0653,-162.0286 125.9724,-164.5483 125.8632,-167.0756"/>
<polygon fill="#000000" stroke="#000000" points="122.356,-167.1301 125.3467,-177.2941 129.3471,-167.4835 122.356,-167.1301"/>
<text text-anchor="middle" x="140.3473" y="-147" font-family="Times,serif" font-size="14.00" fill="#000000">back</text>
</g>
<!-- division&#45;&gt;division -->
<g id="edge11" class="edge">
<title>division-&gt;division</title>
<path fill="none" stroke="#000000" d="M165.4639,-110.8825C176.1967,-110.6315 184.2897,-109.2707 184.2897,-106.8 184.2897,-105.2172 180.9683,-104.0899 175.7593,-103.4181"/>
<polygon fill="#000000" stroke="#000000" points="175.6785,-99.9046 165.4639,-102.7175 175.2032,-106.8885 175.6785,-99.9046"/>
<text text-anchor="middle" x="209.1698" y="-102.6" font-family="Times,serif" font-size="14.00" fill="#000000">get_state</text>
</g>
<!-- division&#45;&gt;division -->
<g id="edge12" class="edge">
<title>division-&gt;division</title>
<path fill="none" stroke="#000000" d="M162.8755,-114.0303C195.7505,-116.6437 234.0499,-114.2336 234.0499,-106.8 234.0499,-100.1214 203.135,-97.4977 173.0141,-98.9289"/>
<polygon fill="#000000" stroke="#000000" points="172.6348,-95.4458 162.8755,-99.5697 173.0764,-102.4318 172.6348,-95.4458"/>
<text text-anchor="middle" x="268.6607" y="-102.6" font-family="Times,serif" font-size="14.00" fill="#000000">get_division</text>
</g>
<!-- closed -->
<g id="node5" class="node">
<title>closed</title>
<ellipse fill="none" stroke="#000000" cx="124.1327" cy="-18" rx="35.9135" ry="18"/>
<text text-anchor="middle" x="124.1327" y="-13.8" font-family="Times,serif" font-size="14.00" fill="#000000">closed</text>
</g>
<!-- division&#45;&gt;closed -->
<g id="edge14" class="edge">
<title>division-&gt;closed</title>
<path fill="none" stroke="#000000" d="M124.1327,-88.4006C124.1327,-76.2949 124.1327,-60.2076 124.1327,-46.4674"/>
<polygon fill="#000000" stroke="#000000" points="127.6328,-46.072 124.1327,-36.072 120.6328,-46.0721 127.6328,-46.072"/>
<text text-anchor="middle" x="134.24" y="-58.2" font-family="Times,serif" font-size="14.00" fill="#000000">end</text>
</g>
</g>
</svg>