<?xml version="1.0" encoding="UTF-8" standalone="no"?>
<!DOCTYPE svg PUBLIC "-//W3C//DTD SVG 1.1//EN" "http://www.w3.org/Graphics/SVG/1.1/DTD/svg11.dtd">
<!-- Generated by graphviz version 2.40.1 (20161225.0304)
 -->
<!-- Title: G Pages: 1 -->
<svg width="182pt" height="332pt" viewBox="0.00 0.00 182.16 332.00" xmlns="http://www.w3.org/2000/svg" xmlns:xlink="http://www.w3.org/1999/xlink">
<g id="graph0" class="graph" transform="scale(1 1) rotate(0) translate(4 328)">
<title>G</title>
<polygon fill="#ffffff" stroke="transparent" points="-4,4 -4,-328 178.157,-328 178.157,4 -4,4"/>
<!-- created -->
<g id="node1" class="node">
<title>created</title>
<ellipse fill="none" stroke="#000000" cx="78" cy="-306" rx="38.8208" ry="18"/>
<text text-anchor="middle" x="78" y="-301.8" font-family="Times,serif" font-size="14.00" fill="#000000">created</text>
</g>
<!-- created&#45;&gt;created -->
<g id="edge2" class="edge">
<title>created-&gt;created</title>
<path fill="none" stroke="#000000" d="M105.5223,-318.854C120.8217,-321.2534 134.9103,-316.9688 134.9103,-306 134.9103,-297.5164 126.4824,-293.0312 115.5849,-292.5444"/>
<polygon fill="#000000" stroke="#000000" points="115.2956,-289.0554 105.5223,-293.146 115.7134,-296.0429 115.2956,-289.0554"/>
</g>
<!-- sum -->
<g id="node2" class="node">
<title>sum</title>
<ellipse fill="none" stroke="#000000" cx="78" cy="-234" rx="27.2661" ry="18"/>
<text text-anchor="middle" x="78" y="-229.8" font-family="Times,serif" font-size="14.00" fill="#000000">sum</text>
</g>
<!-- created&#45;&gt;sum -->
<g id="edge1" class="edge">
<title>created-&gt;sum</title>
<path fill="none" stroke="#000000" d="M72.0843,-288.2022C71.2798,-280.1807 71.0571,-270.5231 71.4162,-261.5957"/>
<polygon fill="#000000" stroke="#000000" points="74.9097,-261.8099 72.105,-251.593 67.9262,-261.3289 74.9097,-261.8099"/>
</g>
<!-- sum&#45;&gt;created -->
<g id="edge4" class="edge">
<title>sum-&gt;created</title>
<path fill="none" stroke="#000000" d="M83.895,-251.593C84.7094,-259.5865 84.942,-269.2363 84.5928,-278.1759"/>
<polygon fill="#000000" stroke="#000000" points="81.0976,-277.9891 83.9157,-288.2022 88.0817,-278.4608 81.0976,-277.9891"/>
</g>
<!-- sum&#45;&gt;sum -->
<g id="edge3" class="edge">
<title>sum-&gt;sum</title>
<path fill="none" stroke="#000000" d="M97.9537,-246.4321C110.7844,-249.6753 123.1327,-245.5313 123.1327,-234 123.1327,-225.6218 116.6141,-221.1433 108.1281,-220.5644"/>
<polygon fill="#000000" stroke="#000000" points="107.5619,-217.1032 97.9537,-221.5679 108.249,-224.0694 107.5619,-217.1032"/>
</g>
<!-- diff -->
<g id="node3" class="node">
<title>diff</title>
<ellipse fill="none" stroke="#000000" cx="114" cy="-162" rx="27" ry="18"/>
<text text-anchor="middle" x="114" y="-157.8" font-family="Times,serif" font-size="14.00" fill="#000000">diff</text>
</g>
<!-- sum&#45;&gt;diff -->
<g id="edge5" class="edge">
<title>sum-&gt;diff</title>
<path fill="none" stroke="#000000" d="M86.7146,-216.5708C90.9597,-208.0807 96.1536,-197.6929 100.8663,-188.2674"/>
<polygon fill="#000000" stroke="#000000" points="104.024,-189.7782 105.3657,-179.2687 97.763,-186.6477 104.024,-189.7782"/>
</g>
<!-- diff&#45;&gt;created -->
<g id="edge7" class="edge">
<title>diff-&gt;created</title>
<path fill="none" stroke="#000000" d="M123.1779,-179.1619C131.8006,-197.711 142.0005,-227.8567 132,-252 126.8355,-264.4682 117.2408,-275.5585 107.5553,-284.3956"/>
<polygon fill="#000000" stroke="#000000" points="105.1771,-281.824 99.8512,-290.9829 109.7262,-287.1443 105.1771,-281.824"/>
</g>
<!-- self -->
<g id="node4" class="node">
<title>self</title>
<ellipse fill="none" stroke="#000000" cx="27" cy="-90" rx="27" ry="18"/>
<text text-anchor="middle" x="27" y="-85.8" font-family="Times,serif" font-size="14.00" fill="#000000">self</text>
</g>
<!-- diff&#45;&gt;self -->
<g id="edge6" class="edge">
<title>diff-&gt;self</title>
<path fill="none" stroke="#000000" d="M96.8116,-147.7751C84.0616,-137.2234 66.481,-122.674 52.1523,-110.8157"/>
<polygon fill="#000000" stroke="#000000" points="54.0882,-107.8747 44.1527,-104.1953 49.6252,-113.2674 54.0882,-107.8747"/>
</g>
<!-- division -->
<g id="node5" class="node">
<title>division</title>
<ellipse fill="none" stroke="#000000" cx="114" cy="-90" rx="42.3145" ry="18"/>
<text text-anchor="middle" x="114" y="-85.8" font-family="Times,serif" font-size="14.00" fill="#000000">division</text>
</g>
<!-- diff&#45;&gt;division -->
<g id="edge8" class="edge">
<title>diff-&gt;division</title>
<path fill="none" stroke="#000000" d="M108.0843,-144.2022C107.2945,-136.3271 107.0655,-126.875 107.3971,-118.0852"/>
<polygon fill="#000000" stroke="#000000" points="110.9069,-118.0532 108.0798,-107.8425 103.9224,-117.5876 110.9069,-118.0532"/>
</g>
<!-- division&#45;&gt;diff -->
<g id="edge10" class="edge">
<title>division-&gt;diff</title>
<path fill="none" stroke="#000000" d="M119.9202,-107.8425C120.7078,-115.7236 120.9348,-125.1774 120.601,-133.9647"/>
<polygon fill="#000000" stroke="#000000" points="117.0915,-133.9908 119.9157,-144.2022 124.0759,-134.4583 117.0915,-133.9908"/>
</g>
<!-- division&#45;&gt;division -->
<g id="edge9" class="edge">
<title>division-&gt;division</title>
<path fill="none" stroke="#000000" d="M143.4033,-102.8993C159.4549,-105.1982 174.157,-100.8984 174.157,-90 174.157,-81.4856 165.1836,-76.9987 153.6036,-76.5393"/>
<polygon fill="#000000" stroke="#000000" points="153.1958,-73.0564 143.4033,-77.1007 153.5805,-80.0458 153.1958,-73.0564"/>
</g>
<!-- closed -->
<g id="node6" class="node">
<title>closed</title>
<ellipse fill="none" stroke="#000000" cx="114" cy="-18" rx="35.9135" ry="18"/>
<text text-anchor="middle" x="114" y="-13.8" font-family="Times,serif" font-size="14.00" fill="#000000">closed</text>
</g>
<!-- division&#45;&gt;closed -->
<g id="edge11" class="edge">
<title>division-&gt;closed</title>
<path fill="none" stroke="#000000" d="M114,-71.8314C114,-64.131 114,-54.9743 114,-46.4166"/>
<polygon fill="#000000" stroke="#000000" points="117.5001,-46.4132 114,-36.4133 110.5001,-46.4133 117.5001,-46.4132"/>
</g>
</g>
</svg>