<?xml version="1.0" encoding="UTF-8" standalone="no"?>
<!DOCTYPE svg PUBLIC "-//W3C//DTD SVG 1.1//EN" "http://www.w3.org/Graphics/SVG/1.1/DTD/svg11.dtd">
<!-- Generated by graphviz version 2.40.1 (20161225.0304)
 -->
<!-- Title: G Pages: 1 -->
<svg width="143pt" height="332pt" viewBox="0.00 0.00 143.07 332.00" xmlns="http://www.w3.org/2000/svg" xmlns:xlink="http://www.w3.org/1999/xlink">
<g id="graph0" class="graph" transform="scale(1 1) rotate(0) translate(4 328)">
<title>G</title>
<polygon fill="#ffffff" stroke="transparent" points="-4,4 -4,-328 139.0673,-328 139.0673,4 -4,4"/>
<!-- created -->
<g id="node1" class="node">
<title>created</title>
<ellipse fill="none" stroke="#000000" cx="38.9103" cy="-306" rx="38.8208" ry="18"/>
<text text-anchor="middle" x="38.9103" y="-301.8" font-family="Times,serif" font-size="14.00" fill="#000000">created</text>
</g>
<!-- created&#45;&gt;created -->
<g id="edge2" class="edge">
<title>created-&gt;created</title>
<path fill="none" stroke="#000000" d="M66.4326,-318.854C81.732,-321.2534 95.8206,-316.9688 95.8206,-306 95.8206,-297.5164 87.3927,-293.0312 76.4952,-292.5444"/>
<polygon fill="#000000" stroke="#000000" points="76.2059,-289.0554 66.4326,-293.146 76.6237,-296.0429 76.2059,-289.0554"/>
</g>
<!-- sum -->
<g id="node2" class="node">
<title>sum</title>
<ellipse fill="none" stroke="#000000" cx="38.9103" cy="-234" rx="27.2661" ry="18"/>
<text text-anchor="middle" x="38.9103" y="-229.8" font-family="Times,serif" font-size="14.00" fill="#000000">sum</text>
</g>
<!-- created&#45;&gt;sum -->
<g id="edge1" class="edge">
<title>created-&gt;sum</title>
<path fill="none" stroke="#000000" d="M32.9946,-288.2022C32.1901,-280.1807 31.9675,-270.5231 32.3265,-261.5957"/>
<polygon fill="#000000" stroke="#000000" points="35.82,-261.8099 33.0153,-251.593 28.8365,-261.3289 35.82,-261.8099"/>
</g>
<!-- sum&#45;&gt;created -->
<g id="edge4" class="edge">
<title>sum-&gt;created</title>
<path fill="none" stroke="#000000" d="M44.8053,-251.593C45.6197,-259.5865 45.8523,-269.2363 45.5031,-278.1759"/>
<polygon fill="#000000" stroke="#000000" points="42.0079,-277.9891 44.826,-288.2022 48.992,-278.4608 42.0079,-277.9891"/>
</g>
<!-- sum&#45;&gt;sum -->
<g id="edge3" class="edge">
<title>sum-&gt;sum</title>
<path fill="none" stroke="#000000" d="M58.864,-246.4321C71.6947,-249.6753 84.043,-245.5313 84.043,-234 84.043,-225.6218 77.5244,-221.1433 69.0384,-220.5644"/>
<polygon fill="#000000" stroke="#000000" points="68.4722,-217.1032 58.864,-221.5679 69.1593,-224.0694 68.4722,-217.1032"/>
</g>
<!-- diff -->
<g id="node3" class="node">
<title>diff</title>
<ellipse fill="none" stroke="#000000" cx="74.9103" cy="-162" rx="27" ry="18"/>
<text text-anchor="middle" x="74.9103" y="-157.8" font-family="Times,serif" font-size="14.00" fill="#000000">diff</text>
</g>
<!-- sum&#45;&gt;diff -->
<g id="edge5" class="edge">
<title>sum-&gt;diff</title>
<path fill="none" stroke="#000000" d="M47.6249,-216.5708C51.87,-208.0807 57.0639,-197.6929 61.7766,-188.2674"/>
<polygon fill="#000000" stroke="#000000" points="64.9343,-189.7782 66.276,-179.2687 58.6733,-186.6477 64.9343,-189.7782"/>
</g>
<!-- diff&#45;&gt;created -->
<g id="edge7" class="edge">
<title>diff-&gt;created</title>
<path fill="none" stroke="#000000" d="M84.0882,-179.1619C92.7109,-197.711 102.9108,-227.8567 92.9103,-252 87.7458,-264.4682 78.1511,-275.5585 68.4656,-284.3956"/>
<polygon fill="#000000" stroke="#000000" points="66.0874,-281.824 60.7615,-290.9829 70.6365,-287.1443 66.0874,-281.824"/>
</g>
<!-- diff&#45;&gt;diff -->
<g id="edge6" class="edge">
<title>diff-&gt;diff</title>
<path fill="none" stroke="#000000" d="M94.8054,-174.4321C107.5983,-177.6753 119.9103,-173.5313 119.9103,-162 119.9103,-153.6218 113.4109,-149.1433 104.9498,-148.5644"/>
<polygon fill="#000000" stroke="#000000" points="104.4122,-145.1004 94.8054,-149.5679 105.1013,-152.0665 104.4122,-145.1004"/>
</g>
<!-- division -->
<g id="node4" class="node">
<title>division</title>
<ellipse fill="none" stroke="#000000" cx="74.9103" cy="-90" rx="42.3145" ry="18"/>
<text text-anchor="middle" x="74.9103" y="-85.8" font-family="Times,serif" font-size="14.00" fill="#000000">division</text>
</g>
<!-- diff&#45;&gt;division -->
<g id="edge8" class="edge">
<title>diff-&gt;division</title>
<path fill="none" stroke="#000000" d="M68.9946,-144.2022C68.2048,-136.3271 67.9758,-126.875 68.3075,-118.0852"/>
<polygon fill="#000000" stroke="#000000" points="71.8173,-118.0532 68.9901,-107.8425 64.8328,-117.5876 71.8173,-118.0532"/>
</g>
<!-- division&#45;&gt;diff -->
<g id="edge10" class="edge">
<title>division-&gt;diff</title>
<path fill="none" stroke="#000000" d="M80.8305,-107.8425C81.6182,-115.7236 81.8451,-125.1774 81.5113,-133.9647"/>
<polygon fill="#000000" stroke="#000000" points="78.0018,-133.9908 80.826,-144.2022 84.9862,-134.4583 78.0018,-133.9908"/>
</g>
<!-- division&#45;&gt;division -->
<g id="edge9" class="edge">
<title>division-&gt;division</title>
<path fill="none" stroke="#000000" d="M104.3136,-102.8993C120.3652,-105.1982 135.0673,-100.8984 135.0673,-90 135.0673,-81.4856 126.0939,-76.9987 114.514,-76.5393"/>
<polygon fill="#000000" stroke="#000000" points="114.1061,-73.0564 104.3136,-77.1007 114.4908,-80.0458 114.1061,-73.0564"/>
</g>
<!-- closed -->
<g id="node5" class="node">
<title>closed</title>
<ellipse fill="none" stroke="#000000" cx="74.9103" cy="-18" rx="35.9135" ry="18"/>
<text text-anchor="middle" x="74.9103" y="-13.8" font-family="Times,serif" font-size="14.00" fill="#000000">closed</text>
</g>
<!-- division&#45;&gt;closed -->
<g id="edge11" class="edge">
<title>division-&gt;closed</title>
<path fill="none" stroke="#000000" d="M74.9103,-71.8314C74.9103,-64.131 74.9103,-54.9743 74.9103,-46.4166"/>
<polygon fill="#000000" stroke="#000000" points="78.4104,-46.4132 74.9103,-36.4133 71.4104,-46.4133 78.4104,-46.4132"/>
</g>
</g>
</svg>